<?xml version="1.0" ?><svg data-name="Слой 1" id="Слой_1" viewBox="0 0 32 32" xmlns="http://www.w3.org/2000/svg"><path d="M16.93,12.9291a6.4251,6.4251,0,0,0,0-9.0845l-.7109-.7114a.47.47,0,0,0-.6651-.0005l-.4843.4834a6.4321,6.4321,0,0,0,.0009,9.085l.459.4585V23.6278a4.9437,4.9437,0,0,0-4.4843,4.9063.47.47,0,0,0,.4707.47h8.9677a.47.47,0,0,0,.4707-.47,4.9436,4.9436,0,0,0-4.4834-4.9063V13.3886ZM15.7347,4.2812l.1514-.15.3779.3789a5.4828,5.4828,0,0,1,0,7.7549l-.1494.15-.3789-.3785A5.4911,5.4911,0,0,1,15.7347,4.2812Zm4.251,23.7827H12.014a4.0135,4.0135,0,0,1,7.9717,0Z"/><path d="M25.432,17.1327a.47.47,0,0,0-.4707-.47H22.19a4.9942,4.9942,0,0,0-4.9893,4.9883V22.17a.4706.4706,0,0,0,.4707.47h2.7715a4.9947,4.9947,0,0,0,4.9893-4.9888Zm-.9414.5186A4.0523,4.0523,0,0,1,20.4427,21.7H18.1419v-.0483A4.0523,4.0523,0,0,1,22.19,17.6034h2.3008Z"/><path d="M25.432,11.0468a.471.471,0,0,0-.4707-.4707H22.19a4.9951,4.9951,0,0,0-4.9893,4.9892v.5176a.471.471,0,0,0,.4707.4707h2.7715a4.9951,4.9951,0,0,0,4.9893-4.9892Zm-.9414.5176a4.0528,4.0528,0,0,1-4.0479,4.0488H18.1419v-.0479A4.0528,4.0528,0,0,1,22.19,11.5165h2.3008Z"/><path d="M6.5677,17.6513A4.9947,4.9947,0,0,0,11.557,22.64h2.7715a.4706.4706,0,0,0,.4707-.47v-.5185A4.9942,4.9942,0,0,0,9.81,16.663H7.0384a.47.47,0,0,0-.4707.47Zm.9414-.0479H9.81a4.0523,4.0523,0,0,1,4.0479,4.0479L11.557,21.7a4.0523,4.0523,0,0,1-4.0479-4.0483Z"/><path d="M7.0384,10.5761a.471.471,0,0,0-.4707.4707v.5176a4.9951,4.9951,0,0,0,4.9893,4.9892h2.7715a.471.471,0,0,0,.4707-.4707v-.5176A4.9951,4.9951,0,0,0,9.81,10.5761Zm6.8194,4.9892-2.3008.0479a4.0528,4.0528,0,0,1-4.0479-4.0488v-.0479H9.81A4.0528,4.0528,0,0,1,13.8578,15.5653Z"/></svg>