<?xml version="1.0" standalone="no"?>
<!DOCTYPE svg PUBLIC "-//W3C//DTD SVG 20010904//EN"
 "http://www.w3.org/TR/2001/REC-SVG-20010904/DTD/svg10.dtd">
<svg version="1.0" xmlns="http://www.w3.org/2000/svg"
 width="50.000000pt" height="50.000000pt" viewBox="0 0 50.000000 50.000000"
 preserveAspectRatio="xMidYMid meet">
<metadata>
Created by potrace 1.16, written by Peter Selinger 2001-2019
</metadata>
<g transform="translate(0.000000,50.000000) scale(0.100000,-0.100000)"
fill="#000000" stroke="none">
<path d="M28 218 c-16 -5 -28 -14 -28 -18 0 -19 42 -116 57 -132 21 -23 99
-24 124 -2 17 15 18 14 24 -12 15 -69 29 -73 39 -13 6 39 8 41 25 25 32 -29
83 -20 124 21 21 20 37 42 37 49 0 7 -14 24 -31 38 -55 47 -162 32 -159 -22 3
-42 1 -52 -10 -52 -7 0 -8 13 -4 35 5 30 2 39 -24 65 -27 27 -37 30 -89 29
-32 0 -70 -5 -85 -11z"/>
</g>
</svg>
